<?xml version="1.0" standalone="no"?>
<!DOCTYPE svg PUBLIC "-//W3C//DTD SVG 1.1//EN" "http://www.w3.org/Graphics/SVG/1.1/DTD/svg11.dtd" >
<svg xmlns="http://www.w3.org/2000/svg" xmlns:xlink="http://www.w3.org/1999/xlink" version="1.1">
<metadata>
Created by FontForge 20161003 at Tue Jan 16 13:45:31 2018
 By www-data
Copyright 1990-1998 as an unpublished work by Bitstream Inc.  All rights reserved.  Confidential.
</metadata>
<defs>
<font id="Square721BT-RomanExtended" horiz-adv-x="500" >
  <font-face 
    font-family="Square 721"
    font-weight="400"
    font-stretch="normal"
    units-per-em="1000"
    panose-1="2 0 5 3 0 0 0 0 0 0"
    ascent="800"
    descent="-200"
    x-height="514"
    cap-height="727"
    bbox="-167 -236 1702 958"
    underline-thickness="52"
    underline-position="-139"
    unicode-range="U+0020-FFFD"
  />
<missing-glyph horiz-adv-x="475" 
 />
    <glyph glyph-name=".notdef" unicode="&#xfffd;" horiz-adv-x="475" 
 />
    <glyph glyph-name=".null" horiz-adv-x="0" 
 />
    <glyph glyph-name="nonmarkingreturn" horiz-adv-x="333" 
 />
    <glyph glyph-name="space" unicode=" " horiz-adv-x="475" 
 />
    <glyph glyph-name="exclam" unicode="!" horiz-adv-x="475" 
d="M181 0v132h113v-132h-113zM198 213l-1 514h78l2 -514h-79z" />
    <glyph glyph-name="quotedbl" unicode="&#x22;" horiz-adv-x="288" 
d="M103 700v-270h-57v270h57zM242 700v-270h-58v270h58z" />
    <glyph glyph-name="numbersign" unicode="#" horiz-adv-x="769" 
d="M450 711l-81 -230h127l82 230h70l-80 -230h150l-21 -60h-152l-46 -133h161l-21 -60h-162l-81 -229h-71l82 229h-129l-82 -229h-70l81 229h-156l21 60h156l47 133h-167l21 60h168l82 230h71zM475 421h-129l-46 -133h128z" />
    <glyph glyph-name="dollar" unicode="$" horiz-adv-x="949" 
d="M784 520v12q0 35 -8 57t-21.5 35t-44 19.5t-61 8t-87.5 1.5h-59v-240h118q78 0 123 -5.5t76 -23.5q40 -23 55 -63t15 -109q0 -119 -67 -164.5t-235 -45.5h-85v-84h-70v84h-95q-145 0 -209.5 43t-64.5 143q0 9 2 53h87q-1 -18 -1 -40q0 -72 48 -96.5t167 -24.5h66v252
h-105q-145 0 -205.5 42.5t-60.5 150.5q0 116 71 158t245 42h55v69h70v-69h41q118 0 180 -8t98 -37q50 -41 50 -137q0 -3 -0.5 -11t-0.5 -12h-87zM643 335h-140v-255h58q144 0 197 26.5t53 109.5q0 74 -36 96.5t-132 22.5zM400 653q-152 0 -202.5 -21t-50.5 -101
q0 -76 44.5 -99t162.5 -23h79v244h-33z" />
    <glyph glyph-name="percent" unicode="%" horiz-adv-x="1233" 
d="M233 269q-98 0 -134 33.5t-36 134.5v123q0 107 34.5 141.5t134.5 34.5h122q98 0 134 -33.5t36 -136.5v-127q0 -103 -36 -136.5t-134 -33.5h-121zM367 672h-145q-56 0 -71.5 -24.5t-15.5 -95.5v-94q0 -70 16 -95.5t71 -25.5h145q56 0 71.5 25.5t15.5 95.5v94q0 72 -15 96
t-72 24zM878 -10q-98 0 -133.5 33.5t-35.5 134.5v124q0 107 34.5 141.5t134.5 34.5h122q97 0 133 -34t36 -137v-126q0 -104 -35.5 -137.5t-133.5 -33.5h-122zM1013 393h-146q-56 0 -71 -24.5t-15 -95.5v-94q0 -70 15.5 -95.5t70.5 -25.5h146q56 0 71.5 25.5t15.5 95.5v94
q0 72 -15 96t-72 24zM708 736h66l-251 -745h-67z" />
    <glyph glyph-name="ampersand" unicode="&#x26;" horiz-adv-x="1069" 
d="M388 -9q-97 0 -154 10t-95 41q-70 58 -70 199q0 94 43 143t126 49h5q-44 29 -61.5 59.5t-17.5 79.5q0 98 53.5 131t186.5 33h279q179 0 179 -189q0 -22 -1 -33h-95q1 12 1 33q0 69 -28 89t-112 20h-252q-65 0 -92.5 -18t-27.5 -66q0 -25 8 -41.5t18.5 -24.5t34.5 -21
l531 -289v166h88v-100q0 -87 -7 -110l145 -77l-30 -75l-145 75q-27 -50 -91 -67t-189 -17h-230zM309 388q-77 -1 -111.5 -36.5t-34.5 -112.5q0 -93 29 -124q23 -24 59 -32t100 -8h307q73 0 108.5 7.5t50.5 33.5z" />
    <glyph glyph-name="quoteright" unicode="&#x2019;" horiz-adv-x="370" 
d="M128 595v132h114v-150q0 -95 -87 -95h-34v62h20q28 0 28 33v18h-41z" />
    <glyph glyph-name="parenleft" unicode="(" horiz-adv-x="363" 
d="M162 200q0 -83 23 -107t105 -24h37v-78h-41q-114 0 -163 45t-49 151v350q0 106 50 151.5t162 45.5h41v-79h-37q-82 0 -105 -24t-23 -107v-324z" />
    <glyph glyph-name="parenright" unicode=")" horiz-adv-x="363" 
d="M201 200v324q0 83 -23 107t-105 24h-37v79h41q112 0 162 -45.5t50 -151.5v-350q0 -106 -49 -151t-163 -45h-41v78h37q82 0 105 24t23 107z" />
    <glyph glyph-name="asterisk" unicode="*" horiz-adv-x="657" 
d="M550 563v-65h-156v65h156zM108 498v65h156v-65h-156zM191 705l56 32l77 -134l-56 -32zM334 457l56 33l77 -134l-56 -33zM467 705l-78 -134l-55 32l77 134zM324 457l-77 -134l-56 33l77 134z" />
    <glyph glyph-name="plus" unicode="+" horiz-adv-x="833" 
d="M446 596v-269h263v-57h-263v-270h-58v270h-264v57h264v269h58z" />
    <glyph glyph-name="comma" unicode="," horiz-adv-x="475" 
d="M181 0v132h113v-150q0 -94 -87 -94h-34v61h20q28 0 28 33v18h-40z" />
    <glyph glyph-name="hyphen" unicode="-" horiz-adv-x="440" 
d="M81 225v73h278v-73h-278z" />
    <glyph glyph-name="period" unicode="." horiz-adv-x="475" 
d="M181 0v132h113v-132h-113z" />
    <glyph glyph-name="slash" unicode="/" horiz-adv-x="363" 
d="M339 736h72l-414 -829h-72z" />
    <glyph glyph-name="zero" unicode="0" horiz-adv-x="949" 
d="M366 -9q-93 0 -147 10t-90 41q-67 58 -67 214v198q0 170 66 228q35 31 89 41t148 10h219q94 0 148 -10t89 -41q66 -59 66 -219v-202q0 -160 -66 -219q-36 -32 -91 -41.5t-154 -9.5h-210zM622 655h-296q-114 0 -151 -54q-16 -24 -20.5 -55.5t-4.5 -86.5v-195
q0 -55 4.5 -86.5t20.5 -55.5q36 -53 151 -53h296q60 0 95.5 11.5t55.5 41.5q16 24 20.5 55t4.5 87v181q0 44 -1 65t-6.5 47t-17.5 44q-36 54 -151 54z" />
    <glyph glyph-name="one" unicode="1" horiz-adv-x="949" 
d="M521 0v634l-269 -215l-50 58l301 250h103v-727h-85z" />
    <glyph glyph-name="two" unicode="2" horiz-adv-x="949" 
d="M886 0h-807v147q0 107 58.5 150.5t193.5 52.5l316 22q78 5 107.5 32.5t29.5 94.5q0 52 -6 80t-24 43q-51 42 -219 42h-146q-125 0 -171.5 -31.5t-46.5 -123.5v-47h-87v87q0 105 64 146t212 41h216q175 0 238.5 -47.5t63.5 -187.5q0 -112 -52 -158t-181 -55l-310 -23
q-68 -5 -99.5 -13.5t-48.5 -34.5q-17 -27 -17 -102q0 -5 0.5 -16.5t0.5 -17.5h715v-81z" />
    <glyph glyph-name="three" unicode="3" horiz-adv-x="949" 
d="M679 331h-298v81h245q97 0 126 22t29 98q0 47 -8 69.5t-34 35.5q-36 18 -173 18h-241q-92 0 -126.5 -26.5t-34.5 -98.5q0 -3 0.5 -11t0.5 -12h-90v50q0 101 63.5 137.5t211.5 36.5h243q161 0 220.5 -37t59.5 -147q0 -95 -25 -131.5t-102 -37.5v-6h6q71 0 101 -37t30 -121
q0 -68 -7 -106t-29 -62q-51 -55 -227 -55h-300q-138 0 -196.5 44t-58.5 151q0 13 2 45h92v-19q0 -76 22 -102q21 -23 53.5 -29.5t93.5 -6.5h297q61 0 91.5 4t48.5 19q17 15 22 41t5 77q0 67 -23.5 91.5t-89.5 24.5z" />
    <glyph glyph-name="four" unicode="4" horiz-adv-x="949" 
d="M685 0v151h-634v111l596 465h119v-497h121v-79h-121v-151h-81zM685 230v427l-545 -427h545z" />
    <glyph glyph-name="five" unicode="5" horiz-adv-x="949" 
d="M75 226h89v-18q0 -80 37 -107.5t134 -27.5h283q102 0 135.5 33t33.5 128q0 45 -1.5 66t-10 44.5t-26.5 38.5q-25 21 -64 27t-111 6h-215q-89 0 -130.5 -15.5t-48.5 -54.5h-84v381h733v-81h-649v-234q21 45 59.5 64t101.5 19h268q151 0 208 -44.5t57 -159.5v-102
q0 -120 -64 -159t-227 -39h-314q-101 0 -155 59q-26 28 -32.5 57.5t-6.5 79.5v39z" />
    <glyph glyph-name="six" unicode="6" horiz-adv-x="949" 
d="M411 76h160q145 0 180 27q21 17 27.5 46.5t6.5 84.5q0 51 -12 74t-48 35q-45 14 -169 14h-160q-145 0 -180 -27q-21 -17 -27.5 -46.5t-6.5 -84.5q0 -50 12 -73.5t48 -35.5q45 -14 169 -14zM180 345q19 55 58 73t120 18h289q133 0 181.5 -46t48.5 -163q0 -80 -13 -122
t-58 -72q-63 -42 -222 -42h-191q-93 0 -148 9t-97 40q-23 17 -36 37.5t-19 51.5t-7 55.5t-1 72.5v280q0 103 65 151t200 48h198q182 0 236 -26q83 -38 83 -128v-61h-88q1 9 1 25q0 70 -43 90t-163 20h-221q-102 0 -137.5 -31.5t-35.5 -112.5v-167z" />
    <glyph glyph-name="seven" unicode="7" horiz-adv-x="949" 
d="M236 0l564 646h-728v81h817v-113l-530 -614h-123z" />
    <glyph glyph-name="eight" unicode="8" horiz-adv-x="949" 
d="M618 339h-287q-100 0 -134 -25.5t-34 -106.5q0 -84 35.5 -110t147.5 -26h257q112 0 147.5 26t35.5 110q0 81 -34 106.5t-134 25.5zM623 656h-298q-91 0 -123 -26t-32 -104q0 -62 32.5 -86.5t111.5 -24.5h320q79 0 112 24.5t33 86.5q0 78 -32.5 104t-123.5 26zM644 736
q122 0 172.5 -44t50.5 -152q0 -79 -30.5 -117t-99.5 -42q81 -9 110.5 -49.5t29.5 -134.5q0 -120 -52 -163t-188 -43h-325q-136 0 -188 43t-52 163q0 94 29.5 134.5t110.5 49.5q-69 4 -99.5 42t-30.5 117q0 108 50.5 152t172.5 44h339z" />
    <glyph glyph-name="nine" unicode="9" horiz-adv-x="949" 
d="M544 651h-160q-145 0 -180 -27q-21 -17 -27.5 -46.5t-6.5 -84.5q0 -51 12 -74t48 -35q45 -14 169 -14h160q145 0 180 27q21 17 27.5 46.5t6.5 84.5q0 50 -12 73.5t-48 35.5q-45 14 -169 14zM775 381q-19 -55 -58 -72.5t-120 -17.5h-288q-133 0 -182 46t-49 163
q0 80 13 122t58 72q63 42 222 42h191q93 0 148 -9t97 -40q23 -17 36 -37.5t19 -51.5t7 -55.5t1 -72.5v-280q0 -103 -65 -151t-200 -48h-198q-182 0 -236 26q-83 38 -83 128v61h88q-1 -9 -1 -25q0 -70 43 -90t163 -20h221q102 0 137.5 31.5t35.5 112.5v166z" />
    <glyph glyph-name="colon" unicode=":" horiz-adv-x="475" 
d="M181 0v132h113v-132h-113zM181 382v132h113v-132h-113z" />
    <glyph glyph-name="semicolon" unicode=";" horiz-adv-x="475" 
d="M181 0v132h113v-150q0 -94 -87 -94h-34v61h20q28 0 28 33v18h-40zM181 382v132h113v-132h-113z" />
    <glyph glyph-name="less" unicode="&#x3c;" horiz-adv-x="833" 
d="M704 497l-488 -199l488 -198v-63l-575 236v50l575 236v-62z" />
    <glyph glyph-name="equal" unicode="=" horiz-adv-x="833" 
d="M709 420v-57h-585v57h585zM709 233v-57h-585v57h585z" />
    <glyph glyph-name="greater" unicode="&#x3e;" horiz-adv-x="833" 
d="M704 323v-50l-575 -236v63l488 198l-488 199v62z" />
    <glyph glyph-name="question" unicode="?" horiz-adv-x="779" 
d="M400 132v-132h-113v132h113zM306 229v43q0 52 33.5 79.5t110.5 39.5l111 18q48 7 66 36t18 93q0 35 -7.5 57.5t-19.5 35.5t-41 19.5t-57.5 8t-83.5 1.5h-144q-92 0 -124.5 -25t-32.5 -94v-45h-83v99q0 67 51.5 104t148.5 37h226q141 0 195.5 -45t54.5 -163
q0 -94 -36 -140.5t-125 -60.5l-99 -15q-46 -7 -64 -21.5t-18 -51.5v-10h-80z" />
    <glyph glyph-name="at" unicode="@" horiz-adv-x="1000" 
d="M587 231l29 118q-8 44 -35 68.5t-66 24.5q-72 0 -119.5 -64.5t-47.5 -159.5q0 -54 25 -83t71 -29q49 0 89 34.5t54 90.5zM631 412l28 59h54l-69 -277q-6 -24 -6 -39q0 -44 54 -44q49 0 99 43q43 37 68 95t25 125q0 129 -95 208.5t-254 79.5q-165 0 -279 -100
q-138 -120 -138 -311q0 -166 121 -261q103 -82 261 -82q173 0 308 92l22 -32q-144 -108 -322 -108q-188 0 -305 90q-148 114 -148 305q0 161 98 282q144 175 392 175q168 0 273 -82q128 -99 128 -250q0 -169 -120 -266q-69 -55 -152 -55q-97 0 -97 76q0 1 0.5 5t0.5 6
q-50 -87 -145 -87q-75 0 -114 41.5t-39 120.5q0 114 67 191t162 77q89 0 122 -77z" />
    <glyph glyph-name="A" unicode="A" horiz-adv-x="963" 
d="M-1 0l422 727h120l423 -727h-96l-95 160h-578l-93 -160h-103zM239 237h490l-247 418z" />
    <glyph glyph-name="B" unicode="B" horiz-adv-x="965" 
d="M655 337h-476v-254h476q104 0 137.5 22.5t33.5 96.5q0 85 -31.5 110t-139.5 25zM769 388q77 -5 110.5 -38t33.5 -104v-77q0 -105 -69.5 -137t-252.5 -32h-502v727h519q168 0 219 -32q36 -23 49 -57.5t13 -94.5q0 -72 -24.5 -106t-95.5 -49zM179 648v-226h414
q48 0 71.5 0.5t52.5 4t41 10t24 19t15.5 31t3.5 46.5q0 76 -31 95q-33 20 -163 20h-428z" />
    <glyph glyph-name="C" unicode="C" horiz-adv-x="993" 
d="M390 -9q-98 0 -154 9.5t-93 41.5q-69 58 -69 216v198q0 171 69 229q36 31 92.5 41t153.5 10h229q171 0 237 -41.5t66 -163.5q0 -25 -1 -39h-82v11q0 86 -38 119.5t-132 33.5h-315q-119 0 -156 -53q-17 -24 -21.5 -55t-4.5 -86v-193q0 -55 4.5 -86t21.5 -55
q37 -53 156 -53h314q101 0 139.5 32.5t38.5 121.5v20h83q0 -7 0.5 -19t0.5 -17q0 -127 -58 -176q-33 -28 -90.5 -37t-162.5 -9h-228z" />
    <glyph glyph-name="D" unicode="D" horiz-adv-x="1038" 
d="M636 727q95 0 153 -9.5t98 -37.5q46 -33 65.5 -85t19.5 -133v-197q0 -81 -19.5 -133t-65.5 -85q-40 -28 -98 -37.5t-153 -9.5h-547v727h547zM694 646h-515v-565h515q102 0 143 39t41 137v212q0 102 -38.5 139.5t-145.5 37.5z" />
    <glyph glyph-name="E" unicode="E" horiz-adv-x="850" 
d="M90 0v727h716v-81h-628v-228h602v-81h-602v-256h628v-81h-716z" />
    <glyph glyph-name="F" unicode="F" horiz-adv-x="818" 
d="M89 0v727h687v-81h-596v-232h573v-79h-573v-335h-91z" />
    <glyph glyph-name="G" unicode="G" horiz-adv-x="1032" 
d="M697 75q108 0 140.5 34.5t32.5 139.5v37h-373v81h464v-118q0 -60 -2 -89t-15.5 -64.5t-40.5 -58.5q-33 -28 -90.5 -37t-162.5 -9h-260q-97 0 -153 10t-94 42q-69 58 -69 215v198q0 171 69 229q36 31 92.5 41t153.5 10h261q171 0 237.5 -41.5t66.5 -163.5q0 -25 -1 -39
h-83v11q0 86 -38 119.5t-132 33.5h-347q-62 0 -98 -11.5t-58 -41.5q-17 -24 -21.5 -55t-4.5 -86v-193q0 -55 4.5 -86t21.5 -55q37 -53 156 -53h344z" />
    <glyph glyph-name="H" unicode="H" horiz-adv-x="1017" 
d="M179 0h-90v727h90v-313h659v313h90v-727h-90v335h-659v-335z" />
    <glyph glyph-name="I" unicode="I" horiz-adv-x="277" 
d="M181 0h-90v727h90v-727z" />
    <glyph glyph-name="J" unicode="J" horiz-adv-x="773" 
d="M26 265h90v-64q0 -74 26.5 -101t106.5 -27h156q132 0 165 30q18 17 23 47t5 88v489h90v-541q0 -109 -49.5 -152t-169.5 -43h-211q-74 0 -114.5 8.5t-71.5 40.5q-21 21 -31.5 49t-12.5 50t-2 62v64z" />
    <glyph glyph-name="K" unicode="K" horiz-adv-x="919" 
d="M181 0h-92v727h92v-309h126l453 309h156l-515 -349l550 -378h-160l-484 339h-126v-339z" />
    <glyph glyph-name="L" unicode="L" horiz-adv-x="767" 
d="M89 0v727h90v-647h565v-80h-655z" />
    <glyph glyph-name="M" unicode="M" horiz-adv-x="1316" 
d="M177 0h-88v727h130l437 -632l437 632h134v-727h-88v640l-447 -640h-68l-447 640v-640z" />
    <glyph glyph-name="N" unicode="N" horiz-adv-x="1067" 
d="M179 0h-90v727h142l657 -644v644h90v-727h-132l-667 654v-654z" />
    <glyph glyph-name="O" unicode="O" horiz-adv-x="1062" 
d="M696 656h-329q-66 0 -105.5 -11.5t-62.5 -41.5q-18 -24 -23 -55.5t-5 -86.5v-191q0 -55 5 -86.5t23 -55.5q23 -30 62.5 -41.5t105.5 -11.5h329q66 0 105.5 11.5t62.5 41.5q17 23 22 52t5 79v213q0 50 -5 79t-22 52q-23 30 -62.5 41.5t-105.5 11.5zM411 -9q-103 0 -163 10
t-100 41q-74 59 -74 216v198q0 87 16.5 142t56.5 87q38 31 99 41t164 10h243q103 0 164 -10t99 -41q73 -58 73 -220v-203q0 -162 -73 -220q-39 -31 -99 -41t-164 -10h-242z" />
    <glyph glyph-name="P" unicode="P" horiz-adv-x="926" 
d="M179 369h441q100 0 131 24t31 98v35q0 74 -31 98t-131 24h-441v-279zM179 0h-90v727h505q162 0 223.5 -33t61.5 -140v-95q0 -107 -61.5 -139.5t-223.5 -32.5h-415v-287z" />
    <glyph glyph-name="Q" unicode="Q" horiz-adv-x="1062" 
d="M410 -9q-102 0 -162 10t-100 41t-57 82.5t-17 131.5v198q0 87 16.5 141.5t56.5 86.5q38 31 98.5 41t163.5 10h244q103 0 163.5 -10t98.5 -41q73 -58 73 -219v-197q0 -62 -13 -118l80 -50l-40 -69l-70 47q-36 -52 -101.5 -68.5t-190.5 -16.5h-243zM696 653h-330
q-67 0 -106 -11t-62 -42q-27 -36 -27 -130v-213q0 -94 27 -130q24 -33 66 -43t119 -10h313q69 0 109 11.5t61 41.5l-285 185l42 69l266 -179q2 60 2 79v178q0 37 -1 57t-7.5 43.5t-19.5 40.5q-23 31 -61.5 42t-105.5 11z" />
    <glyph glyph-name="R" unicode="R" horiz-adv-x="964" 
d="M179 0h-90v727h519q83 0 132.5 -6t86.5 -25t52 -53t15 -89v-87q0 -66 -27 -98t-101 -47q120 -14 120 -142v-180h-90v162q0 42 -9 67t-33.5 37.5t-52.5 15.5t-81 3h-441v-285zM637 648h-458v-279h458q97 0 129.5 24t32.5 98v35q0 74 -32.5 98t-129.5 24z" />
    <glyph glyph-name="S" unicode="S" horiz-adv-x="954" 
d="M75 237h87q-2 -38 -2 -43q0 -72 48 -97t165 -25h190q139 0 188.5 26.5t49.5 114.5q0 74 -34.5 97t-125.5 23h-307q-143 0 -203 44.5t-60 155.5q0 118 71 160.5t242 42.5h165q117 0 177.5 -8t96.5 -38q49 -42 49 -144v-21h-87v11q0 76 -37 99t-143 23h-248
q-110 0 -151 -24.5t-41 -96.5q0 -76 43 -99.5t155 -23.5h261q149 0 198 -29q40 -24 54.5 -65t14.5 -112q0 -124 -66.5 -170.5t-233.5 -46.5h-247q-144 0 -207.5 43.5t-63.5 147.5q0 13 2 55z" />
    <glyph glyph-name="T" unicode="T" horiz-adv-x="859" 
d="M474 0h-90v646h-360v81h810v-81h-360v-646z" />
    <glyph glyph-name="U" unicode="U" horiz-adv-x="1009" 
d="M394 -9q-95 0 -150 10t-92 41q-68 57 -68 214v471h93v-471q0 -49 4.5 -77.5t20.5 -51.5q36 -53 153 -53h299q117 0 153 53q16 23 20.5 51.5t4.5 77.5v471h93v-466q0 -160 -67 -219q-35 -31 -90.5 -41t-151.5 -10h-222z" />
    <glyph glyph-name="V" unicode="V" horiz-adv-x="921" 
d="M403 0l-404 727h102l358 -650l360 650h103l-404 -727h-115z" />
    <glyph glyph-name="W" unicode="W" horiz-adv-x="1296" 
d="M282 0l-282 727h94l252 -651l242 651h120l240 -651l254 651h95l-283 -727h-129l-237 634l-237 -634h-129z" />
    <glyph glyph-name="X" unicode="X" horiz-adv-x="943" 
d="M-5 0l393 388l-348 339h127l302 -297l309 297h123l-347 -339l394 -388h-128l-348 347l-347 -347h-130z" />
    <glyph glyph-name="Y" unicode="Y" horiz-adv-x="921" 
d="M413 0v304l-413 423h129l332 -341l332 341h129l-413 -423v-304h-96z" />
    <glyph glyph-name="Z" unicode="Z" horiz-adv-x="914" 
d="M44 0v81l672 567h-647v79h779v-79l-672 -567h682v-81h-814z" />
    <glyph glyph-name="bracketleft" unicode="[" horiz-adv-x="363" 
d="M327 725v-79h-164v-567h164v-79h-250v725h250z" />
    <glyph glyph-name="backslash" unicode="\" horiz-adv-x="363" 
d="M25 736l413 -829h-72l-413 829h72z" />
    <glyph glyph-name="bracketright" unicode="]" horiz-adv-x="363" 
d="M37 0v79h164v567h-164v79h250v-725h-250z" />
    <glyph glyph-name="asciicircum" unicode="^" horiz-adv-x="1000" 
d="M539 712l254 -272h-77l-216 214l-216 -214h-78l254 272h79z" />
    <glyph glyph-name="underscore" unicode="_" 
d="M500 -178v-58h-500v58h500z" />
    <glyph glyph-name="quoteleft" unicode="&#x2018;" horiz-adv-x="370" 
d="M242 624v-132h-114v150q0 94 88 94h33v-61h-20q-28 0 -28 -34v-17h41z" />
    <glyph glyph-name="a" unicode="a" horiz-adv-x="757" 
d="M453 521q119 0 175 -45.5t56 -143.5v-332h-78v68q-21 -44 -63.5 -59.5t-117.5 -15.5h-137q-132 0 -185 37.5t-53 129.5q0 88 53 123.5t183 35.5h144q125 0 176 -61v70q0 68 -36.5 92t-129.5 24h-122q-88 0 -117.5 -12.5t-29.5 -57.5v-15h-86v14q0 79 52 113.5t168 34.5
h148zM601 136v45q0 41 -38.5 54.5t-130.5 13.5h-123q-100 0 -135 -15.5t-35 -69.5q0 -62 32 -78.5t138 -16.5h123q93 0 131 13t38 54z" />
    <glyph glyph-name="b" unicode="b" horiz-adv-x="782" 
d="M343 69h114q110 0 147.5 31.5t37.5 128.5v61q0 94 -38 125t-147 31h-114q-109 0 -147 -31t-38 -125v-61q0 -97 37.5 -128.5t147.5 -31.5zM340 -7q-80 0 -123.5 19t-66.5 72v-84h-70v727h79v-278q51 72 161 72h158q132 0 189 -51.5t57 -168.5v-81q0 -122 -56 -174.5
t-190 -52.5h-138z" />
    <glyph glyph-name="c" unicode="c" horiz-adv-x="735" 
d="M600 336q-1 70 -35 90t-131 20h-120q-87 0 -127 -25.5t-40 -90.5v-119q0 -84 36.5 -113t132.5 -29h122q93 0 130.5 25t37.5 94v6h77v-14q0 -98 -54 -142.5t-172 -44.5h-147q-124 0 -184.5 48.5t-60.5 150.5v130q0 102 60 150.5t185 48.5h122q129 0 186.5 -39t57.5 -133
v-13h-76z" />
    <glyph glyph-name="d" unicode="d" horiz-adv-x="782" 
d="M443 -7h-137q-134 0 -190 52.5t-56 174.5v81q0 117 57 168.5t189 51.5h158q110 0 161 -72v278h79v-727h-71v84q-23 -53 -66.5 -72t-123.5 -19zM441 69q110 0 147.5 31.5t37.5 128.5v61q0 94 -38 125t-147 31h-115q-109 0 -147 -31t-38 -125v-61q0 -97 37.5 -128.5
t147.5 -31.5h115z" />
    <glyph glyph-name="e" unicode="e" horiz-adv-x="766" 
d="M147 313h477v12q0 73 -38 97t-137 24h-127q-94 0 -134.5 -29t-40.5 -104zM451 521q144 0 201.5 -53t57.5 -189q0 -26 -1 -40h-562v-28q0 -80 39 -113t138 -33h134q167 0 167 87v5h85v-13q0 -74 -59 -112.5t-174 -38.5h-154q-139 0 -198.5 51.5t-59.5 170.5v82
q0 120 59 172t199 52h128z" />
    <glyph glyph-name="f" unicode="f" horiz-adv-x="429" 
d="M123 0v441h-108v73h108v37q0 92 45 134t143 42h131v-74h-128q-59 0 -84.5 -19.5t-25.5 -67.5v-52h238v-73h-238v-441h-81z" />
    <glyph glyph-name="g" unicode="g" horiz-adv-x="775" 
d="M703 9q0 -191 -244 -191h-151q-119 0 -177 42t-61 130h81q1 -53 40 -73t131 -20h128q99 0 136.5 24.5t37.5 94.5v81q-30 -43 -64.5 -57.5t-91.5 -14.5h-160q-129 0 -186 51t-57 166v62q0 115 58 166t188 51h113q89 0 134 -14.5t70 -65.5v73h75v-505zM322 100h128
q98 0 137 26.5t39 103.5v86q0 77 -39.5 103.5t-136.5 26.5h-128q-98 0 -137 -26.5t-39 -103.5v-86q0 -77 39 -103.5t137 -26.5z" />
    <glyph glyph-name="h" unicode="h" horiz-adv-x="782" 
d="M80 0v727h81v-308q30 56 91.5 79t169.5 23q155 0 219.5 -40.5t64.5 -145.5v-335h-81v313q0 40 -7 62.5t-27 37.5q-43 32 -192 32q-127 0 -182.5 -31t-55.5 -107v-307h-81z" />
    <glyph glyph-name="i" unicode="i" horiz-adv-x="250" 
d="M84 0v514h82v-514h-82zM84 630v97h82v-97h-82z" />
    <glyph glyph-name="j" unicode="j" horiz-adv-x="259" 
d="M176 -43q0 -78 -27.5 -105t-110.5 -27q-5 0 -15 0.5t-16 0.5v75h9q48 0 63.5 12t15.5 52v549h81v-557zM95 630v97h81v-97h-81z" />
    <glyph glyph-name="k" unicode="k" horiz-adv-x="685" 
d="M175 727v-401h53l285 188h127l-343 -225l406 -289h-125l-352 248h-51v-248h-81v727h81z" />
    <glyph glyph-name="l" unicode="l" horiz-adv-x="269" 
d="M175 727v-727h-81v727h81z" />
    <glyph glyph-name="m" unicode="m" horiz-adv-x="1213" 
d="M160 0h-80v514h79v-65q24 42 77.5 57t153.5 15q107 0 162 -19.5t79 -74.5q49 95 225 95q152 0 216.5 -42t64.5 -145v-335h-75v313q0 41 -6 63.5t-27 37.5q-43 30 -169 30q-107 0 -155.5 -28.5t-48.5 -96.5v-319h-78v320q0 75 -38 100.5t-157 25.5q-118 0 -170.5 -30.5
t-52.5 -103.5v-312z" />
    <glyph glyph-name="n" unicode="n" horiz-adv-x="782" 
d="M80 0v514h81v-95q30 56 91.5 79t169.5 23q155 0 219.5 -40.5t64.5 -145.5v-335h-81v313q0 40 -6.5 62.5t-27.5 37.5q-45 32 -192 32q-127 0 -182.5 -31t-55.5 -107v-307h-81z" />
    <glyph glyph-name="o" unicode="o" horiz-adv-x="799" 
d="M332 69h134q110 0 148 31.5t38 128.5v61q0 94 -38.5 125t-147.5 31h-134q-109 0 -147 -31t-38 -125v-61q0 -97 37.5 -128.5t147.5 -31.5zM311 -7q-134 0 -190 52.5t-56 174.5v81q0 117 57 168.5t189 51.5h177q132 0 189 -51.5t57 -168.5v-81q0 -122 -56 -174.5
t-190 -52.5h-177z" />
    <glyph glyph-name="p" unicode="p" horiz-adv-x="782" 
d="M340 520h138q134 0 190 -52.5t56 -174.5v-81q0 -117 -57 -168.5t-189 -51.5h-158q-110 0 -161 72v-238h-79v687h70v-84q23 53 66.5 72t123.5 19zM343 444q-110 0 -147.5 -31.5t-37.5 -128.5v-61q0 -94 38 -125t147 -31h114q109 0 147 31t38 125v61q0 97 -37.5 128.5
t-147.5 31.5h-114z" />
    <glyph glyph-name="q" unicode="q" horiz-adv-x="782" 
d="M440 444h-114q-110 0 -147.5 -31.5t-37.5 -128.5v-61q0 -94 38 -125t147 -31h114q109 0 147 31t38 125v61q0 97 -37.5 128.5t-147.5 31.5zM443 520q80 0 123 -19t66 -72v84h71v-687h-79v238q-51 -72 -161 -72h-158q-132 0 -189 51.5t-57 168.5v81q0 122 56 174.5
t190 52.5h138z" />
    <glyph glyph-name="r" unicode="r" horiz-adv-x="641" 
d="M80 0v509h79v-76q27 52 75.5 70t138.5 18q128 0 182 -38t54 -133v-68h-76v48q0 69 -36 92t-144 23q-99 0 -144.5 -29.5t-45.5 -96.5v-319h-83z" />
    <glyph glyph-name="s" unicode="s" horiz-adv-x="782" 
d="M295 228q-133 0 -178 26.5t-45 117.5q0 82 50.5 115t172.5 33h146q120 0 176.5 -29t56.5 -95v-34h-78v21q0 38 -40 50t-144 12h-80q-111 0 -145 -12t-34 -61q0 -50 34.5 -62.5t144.5 -12.5l140 1q81 0 121.5 -7t65.5 -32q24 -24 29.5 -51.5t5.5 -80.5q0 -78 -53.5 -106.5
t-176.5 -28.5h-207q-101 0 -143.5 40.5t-43.5 144.5h74v-9q0 -64 26 -81.5t105 -17.5h230q67 0 86 15t19 69q0 42 -22 58.5t-82 16.5h-211z" />
    <glyph glyph-name="t" unicode="t" horiz-adv-x="584" 
d="M196 514h338v-69h-339v-270q0 -71 32 -90.5t120 -19.5q83 0 108 21t25 83v66h71v-66q0 -98 -49.5 -137t-173.5 -39q-123 0 -174 51q-24 24 -30.5 53.5t-6.5 82.5v265h-110v69h110v118h79v-118z" />
    <glyph glyph-name="u" unicode="u" horiz-adv-x="782" 
d="M702 514v-514h-78v97q-32 -60 -89.5 -82t-159.5 -22q-161 0 -230 41.5t-69 144.5v335h81v-310q0 -42 6.5 -65t27.5 -38q44 -32 198 -32q119 0 174.5 29.5t55.5 95.5v320h83z" />
    <glyph glyph-name="v" unicode="v" horiz-adv-x="666" 
d="M279 0l-279 514h91l240 -437l242 437h92l-285 -514h-101z" />
    <glyph glyph-name="w" unicode="w" horiz-adv-x="1016" 
d="M230 0l-230 514h94l193 -442l157 442h124l156 -442l202 442h90l-242 -514h-113l-156 444l-162 -444h-113z" />
    <glyph glyph-name="x" unicode="x" horiz-adv-x="674" 
d="M0 0l274 275l-240 239h111l187 -186l185 186h113l-239 -233l283 -281h-123l-219 228l-216 -228h-116z" />
    <glyph glyph-name="y" unicode="y" horiz-adv-x="653" 
d="M279 0l-279 514h91l245 -445l223 445h91l-254 -514q-21 -42 -35.5 -66.5t-35.5 -49.5t-43.5 -37.5t-55 -20.5t-75.5 -8q-11 0 -30 0.5t-26 0.5v73q17 -1 30 -1q77 0 115.5 22t62.5 87h-24z" />
    <glyph glyph-name="z" unicode="z" horiz-adv-x="653" 
d="M49 77l448 370h-430v67h544v-72l-448 -370h451v-72h-565v77z" />
    <glyph glyph-name="braceleft" unicode="{" 
d="M419 659q-4 0 -11.5 0.5t-10.5 0.5q-62 0 -81.5 -25t-19.5 -94v-118q0 -76 -19.5 -112t-77.5 -52q58 -16 77.5 -52t19.5 -112v-118q0 -70 20 -94t84 -24h19v-61h-17q-89 0 -128 25q-31 20 -40 54.5t-9 98.5v119q0 73 -26.5 103.5t-92.5 30.5q-3 0 -10.5 -0.5t-11.5 -0.5
v62q4 0 11.5 -0.5t10.5 -0.5q66 0 92.5 30.5t26.5 104.5v119q0 65 9 99t40 54q39 25 128 25h17v-62z" />
    <glyph glyph-name="bar" unicode="|" 
d="M281 764v-1000h-62v1000h62z" />
    <glyph glyph-name="braceright" unicode="}" 
d="M275 543v-119q0 -74 27 -104.5t93 -30.5q3 0 10.5 0.5t11.5 0.5v-62q-4 0 -11.5 0.5t-10.5 0.5q-66 0 -93 -30.5t-27 -104.5v-118q0 -65 -9 -99.5t-39 -54.5q-36 -24 -126 -24h-20v61q4 0 11.5 -0.5t10.5 -0.5q62 0 81.5 25t19.5 95v117q0 76 19.5 112t77.5 52
q-58 16 -77.5 52t-19.5 112v118q0 70 -20 94.5t-84 24.5h-19v61h17q90 0 129 -25q30 -20 39 -54t9 -99z" />
    <glyph glyph-name="asciitilde" unicode="~" horiz-adv-x="833" 
d="M747 306q-98 -70 -189 -70q-42 0 -93 17q-14 5 -48.5 17t-51 17t-42.5 10.5t-48 5.5q-77 0 -188 -78v65q103 71 189 71q52 0 142 -32q5 -2 27 -10t30 -10.5t25 -7.5t31 -6.5t28 -1.5q78 0 188 77v-64z" />
    <glyph glyph-name="exclamdown" unicode="&#xa1;" horiz-adv-x="475" 
d="M294 727v-132h-113v132h113zM276 514l1 -514h-77l-3 514h79z" />
    <glyph glyph-name="cent" unicode="&#xa2;" horiz-adv-x="949" 
d="M707 336q0 58 -27.5 83.5t-89.5 25.5h-8l-108 -376h71q93 0 130.5 25t37.5 94v6h78v-14q0 -98 -54.5 -142.5t-172.5 -44.5h-111l-37 -127h-71l36 127h-3q-96 0 -151 52.5t-55 145.5v131q0 102 60 150t185 48h115l30 104h71l-30 -104q88 -2 134 -45.5t46 -123.5v-15h-76z
M421 445q-87 0 -127 -25.5t-40 -90.5v-119q0 -74 31.5 -107.5t103.5 -33.5h14l108 376h-90z" />
    <glyph glyph-name="sterling" unicode="&#xa3;" horiz-adv-x="949" 
d="M66 0v82q68 1 96.5 23.5t28.5 78.5v122h-125v69h125v205q0 81 49.5 118.5t156.5 37.5h196q146 0 211 -35t65 -125v-61h-85q1 11 1 32q0 68 -37 90t-138 22h-218q-64 0 -88.5 -29t-24.5 -92v-163h363v-69h-363v-81q0 -35 -1 -51t-6 -36.5t-17 -33t-32 -22.5h660v-82h-817z
" />
    <glyph glyph-name="fraction" unicode="&#x2044;" horiz-adv-x="167" 
d="M-96 -9h-71l430 745h70z" />
    <glyph glyph-name="yen" unicode="&#xa5;" horiz-adv-x="949" 
d="M434 0v300h-391v60h337l-98 100h-239v60h180l-202 207h112l344 -358l346 358h105l-201 -207h180v-60h-239l-98 -100h337v-60h-392v-300h-81z" />
    <glyph glyph-name="florin" unicode="&#x192;" horiz-adv-x="949" 
d="M416 332h-175v73h194l15 61q34 145 98.5 208t185.5 63q74 0 142 -8v-78q-74 14 -121 14q-99 0 -147 -47.5t-73 -162.5l-11 -50h184v-73h-201l-30 -144q-37 -179 -88 -253q-72 -104 -245 -104q-54 0 -116 11v75q62 -13 106 -13q118 0 170.5 64.5t84.5 226.5z" />
    <glyph glyph-name="section" unicode="&#xa7;" horiz-adv-x="759" 
d="M239 -9q-77 0 -108.5 27t-31.5 101q0 20 1 31h75q0 -4 -0.5 -10t-0.5 -8q0 -45 17.5 -58t68.5 -13h243q44 0 63 14.5t19 52.5q0 34 -18.5 50t-59.5 24l-324 62q-116 22 -116 125q0 43 26.5 72.5t72.5 38.5q-66 35 -66 113q0 57 35.5 90t100.5 33h247q98 0 136 -24
t38 -100v-15h-70v8q0 42 -18 56t-68 14h-255q-31 0 -48.5 -15.5t-17.5 -41.5q0 -49 68 -62l337 -66q118 -24 118 -118q0 -103 -103 -120q66 -38 66 -121q0 -62 -39 -104q-16 -17 -36 -25t-36 -9.5t-46 -1.5h-270zM198 343l317 -65q15 -3 29 -3q36 0 59 22t23 55
q0 28 -17.5 41.5t-56.5 22.5l-294 64q-16 3 -30 3q-34 0 -59.5 -24t-25.5 -56q0 -48 55 -60z" />
    <glyph glyph-name="currency" unicode="&#xa4;" horiz-adv-x="949" 
d="M886 222q-6 -127 -65 -180q-36 -32 -91 -41.5t-154 -9.5h-121q-93 0 -147 10t-90 41q-37 31 -52 83.5t-15 135.5h-122l20 60h102v100h-122l20 60h102q5 148 66 201q35 31 89 41t148 10h130q94 0 148 -10t89 -41q53 -48 64 -162h-89q-3 53 -23 83q-19 29 -55 40.5
t-96 11.5h-207q-114 0 -151 -54q-23 -34 -25 -120h442l-20 -60h-422v-100h390l-20 -60h-370q0 -54 4.5 -85t20.5 -54q36 -53 151 -53h207q119 0 153 50q23 33 23 103h88z" />
    <glyph glyph-name="quotesingle" unicode="'" horiz-adv-x="149" 
d="M103 700v-270h-57v270h57z" />
    <glyph glyph-name="quotedblleft" unicode="&#x201c;" horiz-adv-x="581" 
d="M452 624v-132h-113v150q0 94 87 94h33v-61h-19q-28 0 -28 -34v-17h40zM242 624v-132h-114v150q0 94 88 94h33v-61h-20q-28 0 -28 -34v-17h41z" />
    <glyph glyph-name="guillemotleft" unicode="&#xab;" horiz-adv-x="502" 
d="M245 106h-91l-108 158l108 155h91l-107 -155zM456 106h-92l-108 158l108 155h92l-108 -155z" />
    <glyph glyph-name="guilsinglleft" unicode="&#x2039;" horiz-adv-x="292" 
d="M246 106h-92l-108 158l108 155h92l-108 -155z" />
    <glyph glyph-name="guilsinglright" unicode="&#x203a;" horiz-adv-x="292" 
d="M46 106l107 158l-107 155h91l108 -155l-108 -158h-91z" />
    <glyph glyph-name="fi" unicode="&#xfb01;" horiz-adv-x="649" 
d="M475 0v514h81v-514h-81zM475 630v97h81v-97h-81zM123 0v441h-108v73h108v37q0 92 45 134t143 42h86v-74h-83q-59 0 -84.5 -19.5t-25.5 -67.5v-52h193v-73h-193v-441h-81z" />
    <glyph glyph-name="fl" unicode="&#xfb02;" horiz-adv-x="649" 
d="M475 0v727h81v-727h-81zM123 0v441h-108v73h108v37q0 92 45 134t143 42h86v-74h-83q-59 0 -84.5 -19.5t-25.5 -67.5v-52h193v-73h-193v-441h-81z" />
    <glyph glyph-name="endash" unicode="&#x2013;" 
d="M0 236v52h500v-52h-500z" />
    <glyph glyph-name="dagger" unicode="&#x2020;" horiz-adv-x="657" 
d="M290 0v468h-215v65h215v194h78v-194h213v-65h-213v-468h-78z" />
    <glyph glyph-name="daggerdbl" unicode="&#x2021;" horiz-adv-x="657" 
d="M292 0v166h-206v70h206v262h-206v71h206v158h73v-158h205v-71h-205v-262h205v-70h-205v-166h-73z" />
    <glyph glyph-name="periodcentered" unicode="&#xb7;" horiz-adv-x="475" 
d="M179 367q0 25 16.5 41.5t41.5 16.5t42 -16.5t17 -41.5t-17.5 -42t-41.5 -17t-41 17.5t-17 41.5z" />
    <glyph glyph-name="paragraph" unicode="&#xb6;" 
d="M463 684h-61v-684h-46v684h-90v-684h-46v382q-85 4 -134 50.5t-49 119.5q0 76 52 123t140 47h234v-38z" />
    <glyph glyph-name="bullet" unicode="&#x2022;" horiz-adv-x="590" 
d="M150 372q0 60 42.5 102t102.5 42q59 0 101.5 -42t42.5 -102q0 -59 -42.5 -102t-102.5 -43t-102 42.5t-42 102.5z" />
    <glyph glyph-name="quotesinglbase" unicode="&#x201a;" horiz-adv-x="370" 
d="M128 0v132h114v-150q0 -94 -87 -94h-34v61h20q28 0 28 33v18h-41z" />
    <glyph glyph-name="quotedblbase" unicode="&#x201e;" horiz-adv-x="581" 
d="M340 0v132h113v-150q0 -94 -87 -94h-34v61h20q28 0 28 33v18h-40zM128 0v132h114v-150q0 -94 -87 -94h-34v61h20q28 0 28 33v18h-41z" />
    <glyph glyph-name="quotedblright" unicode="&#x201d;" horiz-adv-x="581" 
d="M340 595v132h113v-150q0 -95 -87 -95h-34v62h20q28 0 28 33v18h-40zM128 595v132h114v-150q0 -95 -87 -95h-34v62h20q28 0 28 33v18h-41z" />
    <glyph glyph-name="guillemotright" unicode="&#xbb;" horiz-adv-x="502" 
d="M45 106l108 158l-108 155h92l108 -155l-108 -158h-92zM256 106l107 158l-107 155h91l108 -155l-108 -158h-91z" />
    <glyph glyph-name="ellipsis" unicode="&#x2026;" horiz-adv-x="1000" 
d="M110 0v132h113v-132h-113zM443 0v132h113v-132h-113zM777 0v132h113v-132h-113z" />
    <glyph glyph-name="perthousand" unicode="&#x2030;" horiz-adv-x="1765" 
d="M233 269q-98 0 -134 33.5t-36 134.5v123q0 107 34.5 141.5t134.5 34.5h122q98 0 134 -33.5t36 -136.5v-127q0 -103 -36 -136.5t-134 -33.5h-121zM367 672h-145q-56 0 -71.5 -24.5t-15.5 -95.5v-94q0 -70 16 -95.5t71 -25.5h145q56 0 71.5 25.5t15.5 95.5v94q0 72 -15 96
t-72 24zM878 -10q-98 0 -133.5 33.5t-35.5 134.5v124q0 107 34.5 141.5t134.5 34.5h122q97 0 133 -34t36 -137v-126q0 -104 -35.5 -137.5t-133.5 -33.5h-122zM1013 393h-146q-56 0 -71 -24.5t-15 -95.5v-94q0 -70 15.5 -95.5t70.5 -25.5h146q56 0 71.5 25.5t15.5 95.5v94
q0 72 -15 96t-72 24zM708 736h66l-251 -745h-67zM1411 -10q-98 0 -134 33.5t-36 134.5v124q0 106 34.5 141t135.5 35h121q98 0 134 -34t36 -137v-126q0 -103 -36 -137t-134 -34h-121zM1545 393h-145q-56 0 -71.5 -24.5t-15.5 -95.5v-94q0 -70 16 -95.5t71 -25.5h145
q56 0 71.5 25.5t15.5 95.5v94q0 72 -15 96t-72 24z" />
    <glyph glyph-name="questiondown" unicode="&#xbf;" horiz-adv-x="779" 
d="M379 595v132h113v-132h-113zM473 498v-43q0 -52 -33.5 -80t-110.5 -40l-111 -17q-47 -7 -65.5 -36t-18.5 -94q0 -35 7.5 -57t19.5 -35.5t41 -19.5t57.5 -7.5t83.5 -1.5h144q92 0 124.5 25t32.5 94v45h84v-99q0 -67 -52 -104t-149 -37h-225q-141 0 -196 45t-55 163
q0 94 36 140.5t125 60.5l99 15q46 7 64 21.5t18 51.5v10h80z" />
    <glyph glyph-name="grave" unicode="`" 
d="M331 574h-67l-168 133h121z" />
    <glyph glyph-name="acute" unicode="&#xb4;" 
d="M169 574l114 133h121l-168 -133h-67z" />
    <glyph glyph-name="circumflex" unicode="&#x2c6;" 
d="M78 574l116 133h112l116 -133h-66l-106 81l-106 -81h-66z" />
    <glyph glyph-name="tilde" unicode="&#x2dc;" 
d="M416 692q-9 -47 -38 -72t-74 -25q-18 0 -40 5l-58 14q-10 3 -24 3q-32 0 -48 -33h-50q29 95 118 95q14 0 28 -3l71 -16q12 -2 19 -2q38 0 46 34h50z" />
    <glyph glyph-name="macron" unicode="&#xaf;" 
d="M98 601v65h304v-65h-304z" />
    <glyph glyph-name="breve" unicode="&#x2d8;" 
d="M79 703h64q11 -59 107 -59q95 0 106 59h64q-8 -66 -49 -95.5t-121 -29.5t-121.5 30t-49.5 95z" />
    <glyph glyph-name="dotaccent" unicode="&#x2d9;" 
d="M197 587v100h106v-100h-106z" />
    <glyph glyph-name="dieresis" unicode="&#xa8;" 
d="M98 586v95h101v-95h-101zM301 586v95h101v-95h-101z" />
    <glyph glyph-name="ring" unicode="&#x2da;" 
d="M386 667q0 -47 -35.5 -73.5t-100.5 -26.5t-100 26t-35 74t34.5 73.5t100.5 25.5t101 -25.5t35 -73.5zM316 664q0 58 -66 58q-65 0 -65 -58q0 -57 65 -57q66 0 66 57z" />
    <glyph glyph-name="cedilla" unicode="&#xb8;" 
d="M198 0h52v-65h99q53 0 53 -59v-34q0 -34 -12 -48.5t-40 -14.5h-221v53h175q17 0 23.5 5t6.5 20t-6.5 20t-23.5 5h-81q-16 0 -20.5 8t-4.5 29v81z" />
    <glyph glyph-name="hungarumlaut" unicode="&#x2dd;" 
d="M127 577l75 133h101l-129 -133h-47zM277 577l92 133h107l-146 -133h-53z" />
    <glyph glyph-name="ogonek" unicode="&#x2db;" 
d="M290 0l-81 -86q-14 -16 -14 -26q0 -24 33 -24h99v-62h-140q-42 0 -56 14.5t-14 51.5q0 23 8.5 36.5t31.5 31.5l81 64h52z" />
    <glyph glyph-name="caron" unicode="&#x2c7;" 
d="M78 705h66l106 -82l106 82h66l-116 -133h-112z" />
    <glyph glyph-name="emdash" unicode="&#x2014;" horiz-adv-x="1000" 
d="M0 236v52h1000v-52h-1000z" />
    <glyph glyph-name="AE" unicode="&#xc6;" horiz-adv-x="1242" 
d="M-19 0l452 727h763v-79h-543v-228h486v-79h-486v-262h543v-79h-631v172h-374l-107 -172h-103zM240 250h325v398h-79z" />
    <glyph glyph-name="ordfeminine" unicode="&#xaa;" horiz-adv-x="568" 
d="M340 732q89 0 131 -32t42 -101v-232h-58v48q-16 -31 -48 -42t-88 -11h-103q-99 0 -138.5 26t-39.5 91q0 62 40 86.5t137 24.5h108q93 0 132 -42v49q0 47 -27.5 64t-97.5 17h-91q-66 0 -88.5 -8.5t-22.5 -40.5v-11h-64v10q0 55 39 79.5t126 24.5h111zM451 462v32
q0 28 -29 37.5t-98 9.5h-92q-75 0 -101.5 -11t-26.5 -48q0 -44 24.5 -55.5t103.5 -11.5h92q69 0 98 9.5t29 37.5z" />
    <glyph glyph-name="Lslash" unicode="&#x141;" horiz-adv-x="774" 
d="M96 0v266l-96 -63v83l96 63v378h90v-336l279 182v-83l-279 -181v-229h565v-80h-655z" />
    <glyph glyph-name="Oslash" unicode="&#xd8;" horiz-adv-x="1062" 
d="M188 143l624 498q-39 16 -116 16h-330q-66 0 -105.5 -11.5t-62.5 -42.5q-27 -37 -27 -130v-208q0 -94 17 -122zM868 597l-626 -502q41 -18 124 -18h330q67 0 106 11.5t61 41.5q18 25 23 55.5t5 85.5v211q0 80 -23 115zM410 -7q-103 0 -161 8.5t-87 32.5l-82 -67l-46 58
l77 58q-37 46 -37 177v197q0 87 16.5 141t56.5 87q38 31 98.5 41.5t163.5 10.5h244q188 0 236 -35l80 64l44 -51l-70 -58q45 -60 45 -187v-206q0 -161 -73 -220q-39 -31 -98.5 -41t-163.5 -10h-243z" />
    <glyph glyph-name="OE" unicode="&#x152;" horiz-adv-x="1449" 
d="M531 654h-172q-60 0 -92.5 -5.5t-55.5 -25.5q-27 -25 -34 -63t-7 -114v-165q0 -51 1.5 -77t11 -54t28.5 -46q21 -19 52 -24.5t86 -5.5h218q56 0 87 5.5t52 24.5q28 26 34.5 63.5t6.5 113.5v165q0 52 -1.5 76.5t-11 53.5t-28.5 47q-23 20 -56 25.5t-93 5.5h-26zM748 81
q-37 -59 -80 -74.5t-127 -15.5h-222q-76 0 -119.5 10t-72.5 41q-54 57 -54 214v198q0 170 54 228q29 31 72 41t119 10h276q58 0 92 -15.5t62 -61.5v71h633v-81h-543v-224h509v-79h-509v-262h543v-81h-633v81z" />
    <glyph glyph-name="ordmasculine" unicode="&#xba;" horiz-adv-x="599" 
d="M249 415h101q82 0 110.5 22.5t28.5 89.5v43q0 66 -28.5 87.5t-110.5 21.5h-101q-82 0 -110.5 -21.5t-28.5 -87.5v-43q0 -67 28.5 -89.5t110.5 -22.5zM233 362q-100 0 -142 37t-42 122v57q0 82 42.5 118t141.5 36h133q99 0 142 -36t43 -118v-57q0 -85 -42 -122t-143 -37
h-133z" />
    <glyph glyph-name="ae" unicode="&#xe6;" horiz-adv-x="1303" 
d="M601 136v45q0 41 -38.5 54.5t-130.5 13.5h-123q-100 0 -135 -15.5t-35 -69.5q0 -62 32 -78.5t138 -16.5h123q93 0 131 13t38 54zM685 312h477v12q0 73 -38.5 97t-137.5 24h-126q-94 0 -134.5 -29t-40.5 -104zM640 80q-34 -57 -80.5 -72t-134.5 -15h-137q-133 0 -185 38
t-52 131q0 87 52.5 122t182.5 35h144q125 0 176 -61v70q0 68 -36.5 92t-129.5 24h-122q-89 0 -118 -12.5t-29 -57.5v-15h-86v14q0 79 52 113.5t168 34.5h148q81 0 126 -16t67 -59q29 42 79 58t135 16h128q144 0 202 -52.5t58 -188.5q0 -26 -1 -40h-563v-29
q1 -82 38.5 -113.5t138.5 -31.5h135q86 0 126.5 21t40.5 67v3h84v-13q0 -73 -59 -111.5t-174 -38.5h-154q-106 0 -157.5 18.5t-62.5 68.5z" />
    <glyph glyph-name="dotlessi" unicode="&#x131;" horiz-adv-x="250" 
d="M84 0v514h82v-514h-82z" />
    <glyph glyph-name="lslash" unicode="&#x142;" horiz-adv-x="282" 
d="M182 727v-296l109 74v-71l-109 -74v-360h-82v323l-103 -70v70l103 71v333h82z" />
    <glyph glyph-name="oslash" unicode="&#xf8;" horiz-adv-x="799" 
d="M734 185q0 -192 -246 -192h-178q-114 0 -171 38l-80 -60l-35 46l73 54q-32 46 -32 120v110q0 117 57 168.5t189 51.5h177q64 0 107.5 -12t56.5 -24l79 59l33 -44l-69 -52q39 -45 39 -120v-143zM166 123l416 309q-36 13 -116 13h-134q-109 0 -147 -31t-38 -125v-79
q0 -62 19 -87zM210 84q34 -15 122 -15h134q110 0 148 31t38 128v75q0 67 -25 93z" />
    <glyph glyph-name="oe" unicode="&#x153;" horiz-adv-x="1354" 
d="M1039 520q144 0 201.5 -52.5t57.5 -188.5q0 -26 -1 -40h-562v-29q0 -80 38.5 -112.5t138.5 -32.5h134q86 0 126.5 21t40.5 67v3h85v-12q0 -151 -234 -151h-154q-79 0 -130.5 15.5t-85.5 54.5q-59 -70 -206 -70h-177q-134 0 -190 52.5t-56 174.5v81q0 117 57 168.5
t189 51.5h177q151 0 206 -71q59 70 216 70h129zM735 313h477v10q0 74 -38 98t-137 24h-127q-94 0 -134.5 -28.5t-40.5 -103.5zM332 68h134q110 0 148 31.5t38 128.5v61q0 94 -38.5 125t-147.5 31h-134q-109 0 -147 -31t-38 -125v-61q0 -97 37.5 -128.5t147.5 -31.5z" />
    <glyph glyph-name="germandbls" unicode="&#xdf;" horiz-adv-x="782" 
d="M87 530q0 100 64 148.5t195 48.5h128q113 0 167 -46.5t54 -143.5q0 -116 -99 -142q72 -8 101 -54t29 -143q0 -68 -8.5 -102t-41.5 -60q-55 -44 -207 -44q-95 0 -149 8v72q60 -14 131 -14q114 0 158 29q21 14 26.5 42.5t5.5 88.5q0 88 -35.5 116t-143.5 28h-137v63h148
q81 0 110.5 20t29.5 92q0 74 -38 97.5t-138 23.5h-94q-99 0 -137 -30.5t-38 -116.5v-511h-81v530z" />
    <glyph glyph-name="Aacute" unicode="&#xc1;" horiz-adv-x="963" 
d="M-1 0l422 727h120l423 -727h-96l-95 160h-578l-93 -160h-103zM239 237h490l-247 418zM401 781l114 133h121l-168 -133h-67z" />
    <glyph glyph-name="Acircumflex" unicode="&#xc2;" horiz-adv-x="963" 
d="M-1 0l422 727h120l423 -727h-96l-95 160h-578l-93 -160h-103zM239 237h490l-247 418zM310 781l116 133h112l116 -133h-66l-106 81l-106 -81h-66z" />
    <glyph glyph-name="Adieresis" unicode="&#xc4;" horiz-adv-x="963" 
d="M-1 0l422 727h120l423 -727h-96l-95 160h-578l-93 -160h-103zM239 237h490l-247 418zM330 793v95h101v-95h-101zM533 793v95h101v-95h-101z" />
    <glyph glyph-name="Agrave" unicode="&#xc0;" horiz-adv-x="963" 
d="M-1 0l422 727h120l423 -727h-96l-95 160h-578l-93 -160h-103zM239 237h490l-247 418zM563 781h-67l-168 133h121z" />
    <glyph glyph-name="Aring" unicode="&#xc5;" horiz-adv-x="963" 
d="M-1 0l422 727h120l423 -727h-96l-95 160h-578l-93 -160h-103zM239 237h490l-247 418zM616 858q0 -47 -35 -73t-100 -26t-100.5 26t-35.5 73q0 48 35 74t101 26t100.5 -26t34.5 -74zM546 856q0 30 -15.5 43.5t-49.5 13.5q-65 0 -65 -57q0 -58 65 -58t65 58z" />
    <glyph glyph-name="Atilde" unicode="&#xc3;" horiz-adv-x="963" 
d="M-1 0l422 727h120l423 -727h-96l-95 160h-578l-93 -160h-103zM239 237h490l-247 418zM648 899q-9 -47 -38 -72t-74 -25q-18 0 -40 5l-58 14q-10 3 -24 3q-32 0 -48 -33h-50q29 95 118 95q14 0 28 -3l71 -16q12 -2 19 -2q38 0 46 34h50z" />
    <glyph glyph-name="Ccedilla" unicode="&#xc7;" horiz-adv-x="993" 
d="M390 -9q-98 0 -154 9.5t-93 41.5q-69 58 -69 216v198q0 171 69 229q36 31 92.5 41t153.5 10h229q171 0 237 -41.5t66 -163.5q0 -25 -1 -39h-82v11q0 86 -38 119.5t-132 33.5h-315q-119 0 -156 -53q-17 -24 -21.5 -55t-4.5 -86v-193q0 -55 4.5 -86t21.5 -55
q37 -53 156 -53h314q101 0 139.5 32.5t38.5 121.5v20h83q0 -7 0.5 -19t0.5 -17q0 -127 -58 -176q-33 -28 -90.5 -37t-162.5 -9h-228zM450 0h52v-65h99q53 0 53 -59v-34q0 -34 -12 -48.5t-40 -14.5h-221v53h175q17 0 23.5 5t6.5 20t-6.5 20t-23.5 5h-81q-16 0 -20.5 8
t-4.5 29v81z" />
    <glyph glyph-name="Eacute" unicode="&#xc9;" horiz-adv-x="850" 
d="M90 0v727h716v-81h-628v-228h602v-81h-602v-256h628v-81h-716zM370 781l114 133h121l-168 -133h-67z" />
    <glyph glyph-name="Ecircumflex" unicode="&#xca;" horiz-adv-x="850" 
d="M90 0v727h716v-81h-628v-228h602v-81h-602v-256h628v-81h-716zM279 781l116 133h112l116 -133h-66l-106 81l-106 -81h-66z" />
    <glyph glyph-name="Edieresis" unicode="&#xcb;" horiz-adv-x="850" 
d="M90 0v727h716v-81h-628v-228h602v-81h-602v-256h628v-81h-716zM299 793v95h101v-95h-101zM502 793v95h101v-95h-101z" />
    <glyph glyph-name="Egrave" unicode="&#xc8;" horiz-adv-x="850" 
d="M90 0v727h716v-81h-628v-228h602v-81h-602v-256h628v-81h-716zM532 781h-67l-168 133h121z" />
    <glyph glyph-name="Eth" unicode="&#xd0;" horiz-adv-x="1043" 
d="M640 727q95 0 153.5 -9.5t98.5 -37.5q46 -33 65 -85t19 -133v-197q0 -81 -19 -133t-65 -85q-40 -28 -98.5 -37.5t-153.5 -9.5h-546v338h-94v72h94v317h546zM699 646h-515v-236h328v-72h-328v-257h515q101 0 142 39t41 137v212q0 102 -38 139.5t-145 37.5z" />
    <glyph glyph-name="Iacute" unicode="&#xcd;" horiz-adv-x="277" 
d="M181 0h-90v727h90v-727zM58 781l114 133h121l-168 -133h-67z" />
    <glyph glyph-name="Icircumflex" unicode="&#xce;" horiz-adv-x="277" 
d="M181 0h-90v727h90v-727zM-33 781l116 133h112l116 -133h-66l-106 81l-106 -81h-66z" />
    <glyph glyph-name="Idieresis" unicode="&#xcf;" horiz-adv-x="277" 
d="M181 0h-90v727h90v-727zM-13 793v95h101v-95h-101zM190 793v95h101v-95h-101z" />
    <glyph glyph-name="Igrave" unicode="&#xcc;" horiz-adv-x="277" 
d="M181 0h-90v727h90v-727zM220 781h-67l-168 133h121z" />
    <glyph glyph-name="Ntilde" unicode="&#xd1;" horiz-adv-x="1067" 
d="M179 0h-90v727h142l657 -644v644h90v-727h-132l-667 654v-654zM703 899q-9 -47 -38 -72t-74 -25q-18 0 -40 5l-58 14q-10 3 -24 3q-32 0 -48 -33h-50q29 95 118 95q14 0 28 -3l71 -16q12 -2 19 -2q38 0 46 34h50z" />
    <glyph glyph-name="Oacute" unicode="&#xd3;" horiz-adv-x="1062" 
d="M696 656h-329q-66 0 -105.5 -11.5t-62.5 -41.5q-18 -24 -23 -55.5t-5 -86.5v-191q0 -55 5 -86.5t23 -55.5q23 -30 62.5 -41.5t105.5 -11.5h329q66 0 105.5 11.5t62.5 41.5q17 23 22 52t5 79v213q0 50 -5 79t-22 52q-23 30 -62.5 41.5t-105.5 11.5zM411 -9q-103 0 -163 10
t-100 41q-74 59 -74 216v198q0 87 16.5 142t56.5 87q38 31 99 41t164 10h243q103 0 164 -10t99 -41q73 -58 73 -220v-203q0 -162 -73 -220q-39 -31 -99 -41t-164 -10h-242zM450 781l114 133h121l-168 -133h-67z" />
    <glyph glyph-name="Ocircumflex" unicode="&#xd4;" horiz-adv-x="1062" 
d="M696 656h-329q-66 0 -105.5 -11.5t-62.5 -41.5q-18 -24 -23 -55.5t-5 -86.5v-191q0 -55 5 -86.5t23 -55.5q23 -30 62.5 -41.5t105.5 -11.5h329q66 0 105.5 11.5t62.5 41.5q17 23 22 52t5 79v213q0 50 -5 79t-22 52q-23 30 -62.5 41.5t-105.5 11.5zM411 -9q-103 0 -163 10
t-100 41q-74 59 -74 216v198q0 87 16.5 142t56.5 87q38 31 99 41t164 10h243q103 0 164 -10t99 -41q73 -58 73 -220v-203q0 -162 -73 -220q-39 -31 -99 -41t-164 -10h-242zM359 781l116 133h112l116 -133h-66l-106 81l-106 -81h-66z" />
    <glyph glyph-name="Odieresis" unicode="&#xd6;" horiz-adv-x="1062" 
d="M696 656h-329q-66 0 -105.5 -11.5t-62.5 -41.5q-18 -24 -23 -55.5t-5 -86.5v-191q0 -55 5 -86.5t23 -55.5q23 -30 62.5 -41.5t105.5 -11.5h329q66 0 105.5 11.5t62.5 41.5q17 23 22 52t5 79v213q0 50 -5 79t-22 52q-23 30 -62.5 41.5t-105.5 11.5zM411 -9q-103 0 -163 10
t-100 41q-74 59 -74 216v198q0 87 16.5 142t56.5 87q38 31 99 41t164 10h243q103 0 164 -10t99 -41q73 -58 73 -220v-203q0 -162 -73 -220q-39 -31 -99 -41t-164 -10h-242zM379 793v95h101v-95h-101zM582 793v95h101v-95h-101z" />
    <glyph glyph-name="Ograve" unicode="&#xd2;" horiz-adv-x="1062" 
d="M696 656h-329q-66 0 -105.5 -11.5t-62.5 -41.5q-18 -24 -23 -55.5t-5 -86.5v-191q0 -55 5 -86.5t23 -55.5q23 -30 62.5 -41.5t105.5 -11.5h329q66 0 105.5 11.5t62.5 41.5q17 23 22 52t5 79v213q0 50 -5 79t-22 52q-23 30 -62.5 41.5t-105.5 11.5zM411 -9q-103 0 -163 10
t-100 41q-74 59 -74 216v198q0 87 16.5 142t56.5 87q38 31 99 41t164 10h243q103 0 164 -10t99 -41q73 -58 73 -220v-203q0 -162 -73 -220q-39 -31 -99 -41t-164 -10h-242zM612 781h-67l-168 133h121z" />
    <glyph glyph-name="Otilde" unicode="&#xd5;" horiz-adv-x="1062" 
d="M696 656h-329q-66 0 -105.5 -11.5t-62.5 -41.5q-18 -24 -23 -55.5t-5 -86.5v-191q0 -55 5 -86.5t23 -55.5q23 -30 62.5 -41.5t105.5 -11.5h329q66 0 105.5 11.5t62.5 41.5q17 23 22 52t5 79v213q0 50 -5 79t-22 52q-23 30 -62.5 41.5t-105.5 11.5zM411 -9q-103 0 -163 10
t-100 41q-74 59 -74 216v198q0 87 16.5 142t56.5 87q38 31 99 41t164 10h243q103 0 164 -10t99 -41q73 -58 73 -220v-203q0 -162 -73 -220q-39 -31 -99 -41t-164 -10h-242zM697 899q-9 -47 -38 -72t-74 -25q-18 0 -40 5l-58 14q-10 3 -24 3q-32 0 -48 -33h-50q29 95 118 95
q14 0 28 -3l71 -16q12 -2 19 -2q38 0 46 34h50z" />
    <glyph glyph-name="Scaron" unicode="&#x160;" horiz-adv-x="954" 
d="M75 237h87q-2 -38 -2 -43q0 -72 48 -97t165 -25h190q139 0 188.5 26.5t49.5 114.5q0 74 -34.5 97t-125.5 23h-307q-143 0 -203 44.5t-60 155.5q0 118 71 160.5t242 42.5h165q117 0 177.5 -8t96.5 -38q49 -42 49 -144v-21h-87v11q0 76 -37 99t-143 23h-248
q-110 0 -151 -24.5t-41 -96.5q0 -76 43 -99.5t155 -23.5h261q149 0 198 -29q40 -24 54.5 -65t14.5 -112q0 -124 -66.5 -170.5t-233.5 -46.5h-247q-144 0 -207.5 43.5t-63.5 147.5q0 13 2 55zM305 912h66l106 -82l106 82h66l-116 -133h-112z" />
    <glyph glyph-name="Thorn" unicode="&#xde;" horiz-adv-x="926" 
d="M179 225h441q99 0 130.5 24.5t31.5 98.5v34q0 74 -31.5 98.5t-130.5 24.5h-441v-280zM179 727v-144h415q162 0 223.5 -32.5t61.5 -139.5v-95q0 -107 -61.5 -140t-223.5 -33h-415v-143h-90v727h90z" />
    <glyph glyph-name="Uacute" unicode="&#xda;" horiz-adv-x="1009" 
d="M394 -9q-95 0 -150 10t-92 41q-68 57 -68 214v471h93v-471q0 -49 4.5 -77.5t20.5 -51.5q36 -53 153 -53h299q117 0 153 53q16 23 20.5 51.5t4.5 77.5v471h93v-466q0 -160 -67 -219q-35 -31 -90.5 -41t-151.5 -10h-222zM424 781l114 133h121l-168 -133h-67z" />
    <glyph glyph-name="Ucircumflex" unicode="&#xdb;" horiz-adv-x="1009" 
d="M394 -9q-95 0 -150 10t-92 41q-68 57 -68 214v471h93v-471q0 -49 4.5 -77.5t20.5 -51.5q36 -53 153 -53h299q117 0 153 53q16 23 20.5 51.5t4.5 77.5v471h93v-466q0 -160 -67 -219q-35 -31 -90.5 -41t-151.5 -10h-222zM333 781l116 133h112l116 -133h-66l-106 81
l-106 -81h-66z" />
    <glyph glyph-name="Udieresis" unicode="&#xdc;" horiz-adv-x="1009" 
d="M394 -9q-95 0 -150 10t-92 41q-68 57 -68 214v471h93v-471q0 -49 4.5 -77.5t20.5 -51.5q36 -53 153 -53h299q117 0 153 53q16 23 20.5 51.5t4.5 77.5v471h93v-466q0 -160 -67 -219q-35 -31 -90.5 -41t-151.5 -10h-222zM353 793v95h101v-95h-101zM556 793v95h101v-95h-101
z" />
    <glyph glyph-name="Ugrave" unicode="&#xd9;" horiz-adv-x="1009" 
d="M394 -9q-95 0 -150 10t-92 41q-68 57 -68 214v471h93v-471q0 -49 4.5 -77.5t20.5 -51.5q36 -53 153 -53h299q117 0 153 53q16 23 20.5 51.5t4.5 77.5v471h93v-466q0 -160 -67 -219q-35 -31 -90.5 -41t-151.5 -10h-222zM586 781h-67l-168 133h121z" />
    <glyph glyph-name="Yacute" unicode="&#xdd;" horiz-adv-x="921" 
d="M413 0v304l-413 423h129l332 -341l332 341h129l-413 -423v-304h-96zM380 781l114 133h121l-168 -133h-67z" />
    <glyph glyph-name="Ydieresis" unicode="&#x178;" horiz-adv-x="921" 
d="M413 0v304l-413 423h129l332 -341l332 341h129l-413 -423v-304h-96zM309 793v95h101v-95h-101zM512 793v95h101v-95h-101z" />
    <glyph glyph-name="Zcaron" unicode="&#x17d;" horiz-adv-x="914" 
d="M44 0v81l672 567h-647v79h779v-79l-672 -567h682v-81h-814zM285 912h66l106 -82l106 82h66l-116 -133h-112z" />
    <glyph glyph-name="aacute" unicode="&#xe1;" horiz-adv-x="757" 
d="M453 521q119 0 175 -45.5t56 -143.5v-332h-78v68q-21 -44 -63.5 -59.5t-117.5 -15.5h-137q-132 0 -185 37.5t-53 129.5q0 88 53 123.5t183 35.5h144q125 0 176 -61v70q0 68 -36.5 92t-129.5 24h-122q-88 0 -117.5 -12.5t-29.5 -57.5v-15h-86v14q0 79 52 113.5t168 34.5
h148zM601 136v45q0 41 -38.5 54.5t-130.5 13.5h-123q-100 0 -135 -15.5t-35 -69.5q0 -62 32 -78.5t138 -16.5h123q93 0 131 13t38 54zM298 574l114 133h121l-168 -133h-67z" />
    <glyph glyph-name="acircumflex" unicode="&#xe2;" horiz-adv-x="757" 
d="M453 521q119 0 175 -45.5t56 -143.5v-332h-78v68q-21 -44 -63.5 -59.5t-117.5 -15.5h-137q-132 0 -185 37.5t-53 129.5q0 88 53 123.5t183 35.5h144q125 0 176 -61v70q0 68 -36.5 92t-129.5 24h-122q-88 0 -117.5 -12.5t-29.5 -57.5v-15h-86v14q0 79 52 113.5t168 34.5
h148zM601 136v45q0 41 -38.5 54.5t-130.5 13.5h-123q-100 0 -135 -15.5t-35 -69.5q0 -62 32 -78.5t138 -16.5h123q93 0 131 13t38 54zM207 574l116 133h112l116 -133h-66l-106 81l-106 -81h-66z" />
    <glyph glyph-name="adieresis" unicode="&#xe4;" horiz-adv-x="757" 
d="M453 521q119 0 175 -45.5t56 -143.5v-332h-78v68q-21 -44 -63.5 -59.5t-117.5 -15.5h-137q-132 0 -185 37.5t-53 129.5q0 88 53 123.5t183 35.5h144q125 0 176 -61v70q0 68 -36.5 92t-129.5 24h-122q-88 0 -117.5 -12.5t-29.5 -57.5v-15h-86v14q0 79 52 113.5t168 34.5
h148zM601 136v45q0 41 -38.5 54.5t-130.5 13.5h-123q-100 0 -135 -15.5t-35 -69.5q0 -62 32 -78.5t138 -16.5h123q93 0 131 13t38 54zM227 586v95h101v-95h-101zM430 586v95h101v-95h-101z" />
    <glyph glyph-name="agrave" unicode="&#xe0;" horiz-adv-x="757" 
d="M453 521q119 0 175 -45.5t56 -143.5v-332h-78v68q-21 -44 -63.5 -59.5t-117.5 -15.5h-137q-132 0 -185 37.5t-53 129.5q0 88 53 123.5t183 35.5h144q125 0 176 -61v70q0 68 -36.5 92t-129.5 24h-122q-88 0 -117.5 -12.5t-29.5 -57.5v-15h-86v14q0 79 52 113.5t168 34.5
h148zM601 136v45q0 41 -38.5 54.5t-130.5 13.5h-123q-100 0 -135 -15.5t-35 -69.5q0 -62 32 -78.5t138 -16.5h123q93 0 131 13t38 54zM460 574h-67l-168 133h121z" />
    <glyph glyph-name="aring" unicode="&#xe5;" horiz-adv-x="757" 
d="M453 521q119 0 175 -45.5t56 -143.5v-332h-78v68q-21 -44 -63.5 -59.5t-117.5 -15.5h-137q-132 0 -185 37.5t-53 129.5q0 88 53 123.5t183 35.5h144q125 0 176 -61v70q0 68 -36.5 92t-129.5 24h-122q-88 0 -117.5 -12.5t-29.5 -57.5v-15h-86v14q0 79 52 113.5t168 34.5
h148zM601 136v45q0 41 -38.5 54.5t-130.5 13.5h-123q-100 0 -135 -15.5t-35 -69.5q0 -62 32 -78.5t138 -16.5h123q93 0 131 13t38 54zM515 655q0 -47 -35.5 -73.5t-100.5 -26.5t-100 26t-35 74t34.5 73.5t100.5 25.5t101 -25.5t35 -73.5zM445 652q0 57 -66 57q-65 0 -65 -57
t65 -57q66 0 66 57z" />
    <glyph glyph-name="atilde" unicode="&#xe3;" horiz-adv-x="757" 
d="M453 521q119 0 175 -45.5t56 -143.5v-332h-78v68q-21 -44 -63.5 -59.5t-117.5 -15.5h-137q-132 0 -185 37.5t-53 129.5q0 88 53 123.5t183 35.5h144q125 0 176 -61v70q0 68 -36.5 92t-129.5 24h-122q-88 0 -117.5 -12.5t-29.5 -57.5v-15h-86v14q0 79 52 113.5t168 34.5
h148zM601 136v45q0 41 -38.5 54.5t-130.5 13.5h-123q-100 0 -135 -15.5t-35 -69.5q0 -62 32 -78.5t138 -16.5h123q93 0 131 13t38 54zM545 692q-9 -47 -38 -72t-74 -25q-18 0 -40 5l-58 14q-10 3 -24 3q-32 0 -48 -33h-50q29 95 118 95q14 0 28 -3l71 -16q12 -2 19 -2
q38 0 46 34h50z" />
    <glyph glyph-name="brokenbar" unicode="&#xa6;" 
d="M281 699v-370h-62v370h62zM281 199v-370h-62v370h62z" />
    <glyph glyph-name="ccedilla" unicode="&#xe7;" horiz-adv-x="735" 
d="M600 336q-1 70 -35 90t-131 20h-120q-87 0 -127 -25.5t-40 -90.5v-119q0 -84 36.5 -113t132.5 -29h122q93 0 130.5 25t37.5 94v6h77v-14q0 -98 -54 -142.5t-172 -44.5h-147q-124 0 -184.5 48.5t-60.5 150.5v130q0 102 60 150.5t185 48.5h122q129 0 186.5 -39t57.5 -133
v-13h-76zM320 0h52v-65h99q53 0 53 -59v-34q0 -34 -12 -48.5t-40 -14.5h-221v53h175q17 0 23.5 5t6.5 20t-6.5 20t-23.5 5h-81q-16 0 -20.5 8t-4.5 29v81z" />
    <glyph glyph-name="copyright" unicode="&#xa9;" horiz-adv-x="833" 
d="M416 713q151 0 256 -105q103 -103 103 -254t-103 -252q-110 -107 -256 -107t-252 106t-106 253q0 146 107 255q102 104 251 104zM733 354q0 132 -92 224t-225 92q-132 0 -221 -91q-94 -96 -94 -225q0 -127 93 -222q93 -93 222 -93q130 0 226 94q91 89 91 221zM520 445
q-7 38 -34.5 59t-67.5 21q-57 0 -89 -45t-32 -127q0 -79 33 -123.5t88 -44.5q42 0 71 23.5t36 65.5h63q-5 -62 -53 -101t-120 -39q-85 0 -136.5 58.5t-51.5 159.5q0 103 53 163t140 60q67 0 112.5 -36.5t50.5 -93.5h-63z" />
    <glyph glyph-name="degree" unicode="&#xb0;" horiz-adv-x="329" 
d="M165 710q57 0 97.5 -40.5t40.5 -97.5t-40.5 -97.5t-98.5 -40.5t-97.5 40t-39.5 98t40.5 98t97.5 40zM263 572q0 41 -28.5 69.5t-69.5 28.5t-70 -28.5t-29 -69.5q0 -42 29 -70.5t70 -28.5q42 0 70 29t28 70z" />
    <glyph glyph-name="divide" unicode="&#xf7;" horiz-adv-x="833" 
d="M417 530q23 0 39.5 -16.5t16.5 -39.5t-16 -39.5t-40 -16.5t-40 16.5t-16 39.5t16.5 39.5t39.5 16.5zM709 327v-57h-585v57h585zM417 178q23 0 39.5 -16.5t16.5 -39.5t-16 -39.5t-40 -16.5q-23 0 -39.5 16.5t-16.5 39.5q0 24 16.5 40t39.5 16z" />
    <glyph glyph-name="eacute" unicode="&#xe9;" horiz-adv-x="766" 
d="M147 313h477v12q0 73 -38 97t-137 24h-127q-94 0 -134.5 -29t-40.5 -104zM451 521q144 0 201.5 -53t57.5 -189q0 -26 -1 -40h-562v-28q0 -80 39 -113t138 -33h134q167 0 167 87v5h85v-13q0 -74 -59 -112.5t-174 -38.5h-154q-139 0 -198.5 51.5t-59.5 170.5v82
q0 120 59 172t199 52h128zM303 574l114 133h121l-168 -133h-67z" />
    <glyph glyph-name="ecircumflex" unicode="&#xea;" horiz-adv-x="766" 
d="M147 313h477v12q0 73 -38 97t-137 24h-127q-94 0 -134.5 -29t-40.5 -104zM451 521q144 0 201.5 -53t57.5 -189q0 -26 -1 -40h-562v-28q0 -80 39 -113t138 -33h134q167 0 167 87v5h85v-13q0 -74 -59 -112.5t-174 -38.5h-154q-139 0 -198.5 51.5t-59.5 170.5v82
q0 120 59 172t199 52h128zM212 574l116 133h112l116 -133h-66l-106 81l-106 -81h-66z" />
    <glyph glyph-name="edieresis" unicode="&#xeb;" horiz-adv-x="766" 
d="M147 313h477v12q0 73 -38 97t-137 24h-127q-94 0 -134.5 -29t-40.5 -104zM451 521q144 0 201.5 -53t57.5 -189q0 -26 -1 -40h-562v-28q0 -80 39 -113t138 -33h134q167 0 167 87v5h85v-13q0 -74 -59 -112.5t-174 -38.5h-154q-139 0 -198.5 51.5t-59.5 170.5v82
q0 120 59 172t199 52h128zM232 586v95h101v-95h-101zM435 586v95h101v-95h-101z" />
    <glyph glyph-name="egrave" unicode="&#xe8;" horiz-adv-x="766" 
d="M147 313h477v12q0 73 -38 97t-137 24h-127q-94 0 -134.5 -29t-40.5 -104zM451 521q144 0 201.5 -53t57.5 -189q0 -26 -1 -40h-562v-28q0 -80 39 -113t138 -33h134q167 0 167 87v5h85v-13q0 -74 -59 -112.5t-174 -38.5h-154q-139 0 -198.5 51.5t-59.5 170.5v82
q0 120 59 172t199 52h128zM465 574h-67l-168 133h121z" />
    <glyph glyph-name="eth" unicode="&#xf0;" horiz-adv-x="799" 
d="M332 69h134q109 0 147.5 31.5t38.5 128.5v61q0 94 -39 125t-147 31h-134q-109 0 -147 -31t-38 -125v-61q0 -97 37.5 -128.5t147.5 -31.5zM311 -7q-134 0 -190 52.5t-56 174.5v81q0 117 57 168.5t189 51.5h92q87 0 141.5 -13t97.5 -54q-20 63 -111 149l-24 24l-235 -54
l-12 54l197 45l-59 55h93l40 -38l153 35l13 -53l-118 -28l36 -32q66 -60 92.5 -129t26.5 -168v-94q0 -122 -56 -174.5t-190 -52.5h-177z" />
    <glyph glyph-name="iacute" unicode="&#xed;" horiz-adv-x="250" 
d="M84 0v514h82v-514h-82zM44 574l114 133h121l-168 -133h-67z" />
    <glyph glyph-name="icircumflex" unicode="&#xee;" horiz-adv-x="250" 
d="M84 0v514h82v-514h-82zM-47 574l116 133h112l116 -133h-66l-106 81l-106 -81h-66z" />
    <glyph glyph-name="idieresis" unicode="&#xef;" horiz-adv-x="250" 
d="M84 0v514h82v-514h-82zM-27 586v95h101v-95h-101zM176 586v95h101v-95h-101z" />
    <glyph glyph-name="igrave" unicode="&#xec;" horiz-adv-x="250" 
d="M84 0v514h82v-514h-82zM206 574h-67l-168 133h121z" />
    <glyph glyph-name="logicalnot" unicode="&#xac;" horiz-adv-x="833" 
d="M709 419v-245h-56v188h-529v57h585z" />
    <glyph glyph-name="minus" unicode="&#x2212;" horiz-adv-x="833" 
d="M709 327v-58h-585v58h585z" />
    <glyph glyph-name="mu" unicode="&#xb5;" horiz-adv-x="551" 
d="M177 522l-62 -291q-7 -31 -7 -67q0 -53 27.5 -82t78.5 -29q121 0 164 200l59 269h76l-79 -368q-11 -49 -11 -66q0 -32 35 -32q8 0 17 1l-13 -61q-21 -5 -45 -5q-34 0 -51 17t-20 55q-42 -72 -141 -72q-85 0 -128 67l-55 -266h-76l154 730h77z" />
    <glyph glyph-name="multiply" unicode="&#xd7;" horiz-adv-x="833" 
d="M419 338l232 233l40 -40l-232 -233l232 -232l-40 -40l-232 232l-233 -232l-39 40l232 232l-232 233l39 40z" />
    <glyph glyph-name="ntilde" unicode="&#xf1;" horiz-adv-x="782" 
d="M80 0v514h81v-95q30 56 91.5 79t169.5 23q155 0 219.5 -40.5t64.5 -145.5v-335h-81v313q0 40 -6.5 62.5t-27.5 37.5q-45 32 -192 32q-127 0 -182.5 -31t-55.5 -107v-307h-81zM575 692q-9 -47 -38 -72t-74 -25q-18 0 -40 5l-58 14q-10 3 -24 3q-32 0 -48 -33h-50
q29 95 118 95q14 0 28 -3l71 -16q12 -2 19 -2q38 0 46 34h50z" />
    <glyph glyph-name="oacute" unicode="&#xf3;" horiz-adv-x="799" 
d="M332 69h134q110 0 148 31.5t38 128.5v61q0 94 -38.5 125t-147.5 31h-134q-109 0 -147 -31t-38 -125v-61q0 -97 37.5 -128.5t147.5 -31.5zM311 -7q-134 0 -190 52.5t-56 174.5v81q0 117 57 168.5t189 51.5h177q132 0 189 -51.5t57 -168.5v-81q0 -122 -56 -174.5
t-190 -52.5h-177zM319 574l114 133h121l-168 -133h-67z" />
    <glyph glyph-name="ocircumflex" unicode="&#xf4;" horiz-adv-x="799" 
d="M332 69h134q110 0 148 31.5t38 128.5v61q0 94 -38.5 125t-147.5 31h-134q-109 0 -147 -31t-38 -125v-61q0 -97 37.5 -128.5t147.5 -31.5zM311 -7q-134 0 -190 52.5t-56 174.5v81q0 117 57 168.5t189 51.5h177q132 0 189 -51.5t57 -168.5v-81q0 -122 -56 -174.5
t-190 -52.5h-177zM228 574l116 133h112l116 -133h-66l-106 81l-106 -81h-66z" />
    <glyph glyph-name="odieresis" unicode="&#xf6;" horiz-adv-x="799" 
d="M332 69h134q110 0 148 31.5t38 128.5v61q0 94 -38.5 125t-147.5 31h-134q-109 0 -147 -31t-38 -125v-61q0 -97 37.5 -128.5t147.5 -31.5zM311 -7q-134 0 -190 52.5t-56 174.5v81q0 117 57 168.5t189 51.5h177q132 0 189 -51.5t57 -168.5v-81q0 -122 -56 -174.5
t-190 -52.5h-177zM248 586v95h101v-95h-101zM451 586v95h101v-95h-101z" />
    <glyph glyph-name="ograve" unicode="&#xf2;" horiz-adv-x="799" 
d="M332 69h134q110 0 148 31.5t38 128.5v61q0 94 -38.5 125t-147.5 31h-134q-109 0 -147 -31t-38 -125v-61q0 -97 37.5 -128.5t147.5 -31.5zM311 -7q-134 0 -190 52.5t-56 174.5v81q0 117 57 168.5t189 51.5h177q132 0 189 -51.5t57 -168.5v-81q0 -122 -56 -174.5
t-190 -52.5h-177zM481 574h-67l-168 133h121z" />
    <glyph glyph-name="onehalf" unicode="&#xbd;" horiz-adv-x="1363" 
d="M328 318v355l-170 -120l-31 32l189 140h65v-407h-53zM502 -9h-71l430 745h70zM1323 0h-508v82q0 60 36.5 84.5t122.5 29.5l199 12q49 3 67.5 18.5t18.5 52.5q0 56 -19 69q-32 24 -138 24h-92q-79 0 -108 -17.5t-29 -69.5v-26h-55v48q0 59 40.5 82t133.5 23h136
q110 0 150 -26.5t40 -104.5q0 -63 -33 -89t-114 -31l-195 -13q-30 -2 -43.5 -3.5t-27.5 -7t-22 -15.5q-11 -15 -11 -58q0 -3 0.5 -9t0.5 -10h450v-45z" />
    <glyph glyph-name="onequarter" unicode="&#xbc;" horiz-adv-x="1363" 
d="M328 318v355l-170 -120l-31 32l189 140h65v-407h-53zM502 -9h-71l430 745h70zM1197 0v85h-400v62l376 260h75v-278h76v-44h-76v-85h-51zM1197 129v239l-344 -239h344z" />
    <glyph glyph-name="onesuperior" unicode="&#xb9;" horiz-adv-x="626" 
d="M344 289v380l-178 -129l-33 35l199 150h68v-436h-56z" />
    <glyph glyph-name="otilde" unicode="&#xf5;" horiz-adv-x="799" 
d="M332 69h134q110 0 148 31.5t38 128.5v61q0 94 -38.5 125t-147.5 31h-134q-109 0 -147 -31t-38 -125v-61q0 -97 37.5 -128.5t147.5 -31.5zM311 -7q-134 0 -190 52.5t-56 174.5v81q0 117 57 168.5t189 51.5h177q132 0 189 -51.5t57 -168.5v-81q0 -122 -56 -174.5
t-190 -52.5h-177zM566 692q-9 -47 -38 -72t-74 -25q-18 0 -40 5l-58 14q-10 3 -24 3q-32 0 -48 -33h-50q29 95 118 95q14 0 28 -3l71 -16q12 -2 19 -2q38 0 46 34h50z" />
    <glyph glyph-name="plusminus" unicode="&#xb1;" horiz-adv-x="833" 
d="M446 576v-168h263v-57h-263v-168h-58v168h-264v57h264v168h58zM709 77v-57h-585v57h585z" />
    <glyph glyph-name="registered" unicode="&#xae;" horiz-adv-x="833" 
d="M416 713q150 0 256 -106q103 -103 103 -253q0 -151 -104 -252q-110 -107 -255 -107q-146 0 -253 107q-105 105 -105 252q0 148 108 256q101 103 250 103zM733 352q0 134 -91 225q-93 93 -226 93q-132 0 -220 -90q-95 -95 -95 -226q0 -127 93 -222q91 -93 221 -93
q131 0 226 93q92 90 92 220zM426 565q171 0 171 -113q0 -43 -25.5 -72.5t-70.5 -36.5l92 -188h-77l-86 178h-87v-178h-69v410h152zM413 520h-70v-142h72q59 0 85 15.5t26 53.5q0 39 -27 56t-86 17z" />
    <glyph glyph-name="scaron" unicode="&#x161;" horiz-adv-x="782" 
d="M295 228q-133 0 -178 26.5t-45 117.5q0 82 50.5 115t172.5 33h146q120 0 176.5 -29t56.5 -95v-34h-78v21q0 38 -40 50t-144 12h-80q-111 0 -145 -12t-34 -61q0 -50 34.5 -62.5t144.5 -12.5l140 1q81 0 121.5 -7t65.5 -32q24 -24 29.5 -51.5t5.5 -80.5q0 -78 -53.5 -106.5
t-176.5 -28.5h-207q-101 0 -143.5 40.5t-43.5 144.5h74v-9q0 -64 26 -81.5t105 -17.5h230q67 0 86 15t19 69q0 42 -22 58.5t-82 16.5h-211zM219 705h66l106 -82l106 82h66l-116 -133h-112z" />
    <glyph glyph-name="thorn" unicode="&#xfe;" horiz-adv-x="782" 
d="M159 727v-281q27 44 68 59t113 15h138q134 0 190 -52.5t56 -174.5v-81q0 -117 -57 -168.5t-189 -51.5h-158q-110 0 -161 72v-238h-79v901h79zM457 444h-114q-109 0 -147 -32t-38 -128v-61q0 -94 38.5 -125t146.5 -31h114q108 0 146.5 31t38.5 125v61q0 96 -38 128
t-147 32z" />
    <glyph glyph-name="threequarters" unicode="&#xbe;" horiz-adv-x="1363" 
d="M428 503h-188v46h154q62 0 80 12t18 55q0 26 -5 39t-21 20q-23 10 -109 10h-152q-58 0 -80 -15t-22 -55q0 -2 0.5 -6.5t0.5 -6.5h-57v28q0 56 40 76.5t133 20.5h154q101 0 138.5 -20.5t37.5 -82.5q0 -53 -16 -73t-64 -21v-4h4q45 0 63.5 -20.5t18.5 -67.5q0 -73 -22 -94
q-31 -31 -143 -31h-189q-87 0 -124 24.5t-37 84.5q0 4 0.5 12t0.5 13h58v-10q0 -41 14 -57q21 -21 93 -21h187q71 0 88 13q17 14 17 66q0 38 -14.5 51.5t-56.5 13.5zM502 -9h-71l430 745h70zM1197 0v85h-400v62l376 260h75v-278h76v-44h-76v-85h-51zM1197 129v239l-344 -239
h344z" />
    <glyph glyph-name="threesuperior" unicode="&#xb3;" horiz-adv-x="626" 
d="M448 488h-197v48h162q64 0 83 13t19 59q0 29 -5 42t-22 21q-25 11 -114 11h-159q-61 0 -84 -16t-23 -59q0 -2 0.5 -6.5t0.5 -7.5h-59v30q0 61 41.5 83t139.5 22h160q107 0 146 -22.5t39 -88.5q0 -57 -16.5 -78.5t-67.5 -22.5v-4h4q47 0 67 -22t20 -73q0 -77 -24 -100
q-33 -33 -150 -33h-198q-92 0 -130 26t-38 91q0 4 0.5 13t0.5 14h61v-12q0 -44 14 -61q22 -22 97 -22h197q74 0 92 14q18 15 18 71q0 40 -15.5 55t-59.5 15z" />
    <glyph glyph-name="trademark" unicode="&#x2122;" horiz-adv-x="833" 
d="M339 711v-33h-84v-228h-46v228h-85v33h215zM463 711l78 -198l73 198h64v-261h-40v224l-84 -224h-26l-88 224v-224h-40v261h63z" />
    <glyph glyph-name="twosuperior" unicode="&#xb2;" horiz-adv-x="626" 
d="M585 289h-533v88q0 64 38.5 90.5t127.5 31.5l209 13q51 3 70.5 19.5t19.5 56.5q0 61 -19 74q-34 25 -145 25h-96q-83 0 -113.5 -19t-30.5 -74v-28h-58v52q0 64 42.5 88.5t140.5 24.5h142q115 0 157 -28.5t42 -112.5q0 -68 -34 -95.5t-119 -32.5l-205 -14
q-32 -3 -45.5 -4.5t-29 -7.5t-23.5 -17q-11 -17 -11 -61q0 -4 0.5 -10t0.5 -10h472v-49z" />
    <glyph glyph-name="uacute" unicode="&#xfa;" horiz-adv-x="782" 
d="M702 514v-514h-78v97q-32 -60 -89.5 -82t-159.5 -22q-161 0 -230 41.5t-69 144.5v335h81v-310q0 -42 6.5 -65t27.5 -38q44 -32 198 -32q119 0 174.5 29.5t55.5 95.5v320h83zM310 574l114 133h121l-168 -133h-67z" />
    <glyph glyph-name="ucircumflex" unicode="&#xfb;" horiz-adv-x="782" 
d="M702 514v-514h-78v97q-32 -60 -89.5 -82t-159.5 -22q-161 0 -230 41.5t-69 144.5v335h81v-310q0 -42 6.5 -65t27.5 -38q44 -32 198 -32q119 0 174.5 29.5t55.5 95.5v320h83zM219 574l116 133h112l116 -133h-66l-106 81l-106 -81h-66z" />
    <glyph glyph-name="udieresis" unicode="&#xfc;" horiz-adv-x="782" 
d="M702 514v-514h-78v97q-32 -60 -89.5 -82t-159.5 -22q-161 0 -230 41.5t-69 144.5v335h81v-310q0 -42 6.5 -65t27.5 -38q44 -32 198 -32q119 0 174.5 29.5t55.5 95.5v320h83zM239 586v95h101v-95h-101zM442 586v95h101v-95h-101z" />
    <glyph glyph-name="ugrave" unicode="&#xf9;" horiz-adv-x="782" 
d="M702 514v-514h-78v97q-32 -60 -89.5 -82t-159.5 -22q-161 0 -230 41.5t-69 144.5v335h81v-310q0 -42 6.5 -65t27.5 -38q44 -32 198 -32q119 0 174.5 29.5t55.5 95.5v320h83zM472 574h-67l-168 133h121z" />
    <glyph glyph-name="yacute" unicode="&#xfd;" horiz-adv-x="653" 
d="M279 0l-279 514h91l245 -445l223 445h91l-254 -514q-21 -42 -35.5 -66.5t-35.5 -49.5t-43.5 -37.5t-55 -20.5t-75.5 -8q-11 0 -30 0.5t-26 0.5v73q17 -1 30 -1q77 0 115.5 22t62.5 87h-24zM246 574l114 133h121l-168 -133h-67z" />
    <glyph glyph-name="ydieresis" unicode="&#xff;" horiz-adv-x="653" 
d="M279 0l-279 514h91l245 -445l223 445h91l-254 -514q-21 -42 -35.5 -66.5t-35.5 -49.5t-43.5 -37.5t-55 -20.5t-75.5 -8q-11 0 -30 0.5t-26 0.5v73q17 -1 30 -1q77 0 115.5 22t62.5 87h-24zM175 586v95h101v-95h-101zM378 586v95h101v-95h-101z" />
    <glyph glyph-name="zcaron" unicode="&#x17e;" horiz-adv-x="653" 
d="M49 77l448 370h-430v67h544v-72l-448 -370h451v-72h-565v77zM155 705h66l106 -82l106 82h66l-116 -133h-112z" />
  </font>
</defs>
</svg>
